<mxfile host="app.diagrams.net" modified="2024-06-21T19:38:19.163Z" agent="Mozilla/5.0 (Windows NT 10.0; Win64; x64) AppleWebKit/537.36 (KHTML, like Gecko) Chrome/126.0.0.0 Safari/537.36" version="24.4.8" etag="B-6-asBjfH_TuMGrw6NI" type="github">
  <diagram name="Page-1" id="nLcJ_jaxuZB_CYDXs5Vm">
    <mxGraphModel>
      <root>
        <mxCell id="0" />
        <mxCell id="1" parent="0" />
      </root>
    </mxGraphModel>
  </diagram>
</mxfile>
